<mxfile host="app.diagrams.net" modified="2022-05-24T12:22:13.816Z" agent="5.0 (Windows NT 10.0; Win64; x64) AppleWebKit/537.36 (KHTML, like Gecko) Chrome/101.0.4951.67 Safari/537.36" etag="mDanwqJgKGlmohR3AOeh" version="17.5.0" type="github">
  <diagram id="ryNRwoCUB4j-wDof32Zm" name="Page-1">
    <mxGraphModel dx="1497" dy="802" grid="1" gridSize="10" guides="1" tooltips="1" connect="1" arrows="1" fold="1" page="1" pageScale="1" pageWidth="1600" pageHeight="900" math="0" shadow="0">
      <root>
        <mxCell id="0" />
        <mxCell id="1" parent="0" />
        <mxCell id="BfTjXE9WXuWk4CkO_jzb-3" style="edgeStyle=orthogonalEdgeStyle;rounded=0;orthogonalLoop=1;jettySize=auto;html=1;fontSize=22;entryX=0;entryY=0.5;entryDx=0;entryDy=0;" edge="1" parent="1" source="BfTjXE9WXuWk4CkO_jzb-1" target="BfTjXE9WXuWk4CkO_jzb-4">
          <mxGeometry relative="1" as="geometry">
            <mxPoint x="670" y="145" as="targetPoint" />
          </mxGeometry>
        </mxCell>
        <mxCell id="BfTjXE9WXuWk4CkO_jzb-1" value="&lt;font style=&quot;font-size: 22px&quot;&gt;Welcome&lt;br&gt;page&lt;/font&gt;" style="rounded=1;whiteSpace=wrap;html=1;" vertex="1" parent="1">
          <mxGeometry x="20" y="10" width="150" height="100" as="geometry" />
        </mxCell>
        <mxCell id="BfTjXE9WXuWk4CkO_jzb-30" style="edgeStyle=orthogonalEdgeStyle;rounded=0;orthogonalLoop=1;jettySize=auto;html=1;exitX=1;exitY=0.5;exitDx=0;exitDy=0;entryX=0;entryY=0.5;entryDx=0;entryDy=0;fontSize=22;" edge="1" parent="1" source="BfTjXE9WXuWk4CkO_jzb-4" target="BfTjXE9WXuWk4CkO_jzb-20">
          <mxGeometry relative="1" as="geometry" />
        </mxCell>
        <mxCell id="BfTjXE9WXuWk4CkO_jzb-4" value="&lt;font style=&quot;font-size: 22px&quot;&gt;Main page&lt;/font&gt;" style="rounded=1;whiteSpace=wrap;html=1;" vertex="1" parent="1">
          <mxGeometry x="250" y="10" width="150" height="100" as="geometry" />
        </mxCell>
        <mxCell id="BfTjXE9WXuWk4CkO_jzb-5" style="edgeStyle=orthogonalEdgeStyle;rounded=0;orthogonalLoop=1;jettySize=auto;html=1;fontSize=22;exitX=1;exitY=0.5;exitDx=0;exitDy=0;entryX=0;entryY=0.5;entryDx=0;entryDy=0;" edge="1" parent="1" source="BfTjXE9WXuWk4CkO_jzb-4" target="BfTjXE9WXuWk4CkO_jzb-6">
          <mxGeometry relative="1" as="geometry">
            <mxPoint x="880" y="145" as="targetPoint" />
            <mxPoint x="390" y="155" as="sourcePoint" />
            <Array as="points">
              <mxPoint x="420" y="60" />
              <mxPoint x="420" y="60" />
            </Array>
          </mxGeometry>
        </mxCell>
        <mxCell id="BfTjXE9WXuWk4CkO_jzb-6" value="&lt;span style=&quot;font-size: 22px&quot;&gt;Product page&lt;/span&gt;" style="rounded=1;whiteSpace=wrap;html=1;" vertex="1" parent="1">
          <mxGeometry x="590" y="10" width="150" height="100" as="geometry" />
        </mxCell>
        <mxCell id="BfTjXE9WXuWk4CkO_jzb-7" value="Header" style="rounded=0;whiteSpace=wrap;html=1;fontSize=22;" vertex="1" parent="1">
          <mxGeometry x="255" y="120" width="120" height="60" as="geometry" />
        </mxCell>
        <mxCell id="BfTjXE9WXuWk4CkO_jzb-8" value="Categories" style="rounded=0;whiteSpace=wrap;html=1;fontSize=22;" vertex="1" parent="1">
          <mxGeometry x="255" y="190" width="120" height="60" as="geometry" />
        </mxCell>
        <mxCell id="BfTjXE9WXuWk4CkO_jzb-9" value="Footer" style="rounded=0;whiteSpace=wrap;html=1;fontSize=22;" vertex="1" parent="1">
          <mxGeometry x="255" y="405" width="120" height="60" as="geometry" />
        </mxCell>
        <mxCell id="BfTjXE9WXuWk4CkO_jzb-10" value="On Sale" style="rounded=0;whiteSpace=wrap;html=1;fontSize=22;" vertex="1" parent="1">
          <mxGeometry x="255" y="260" width="120" height="60" as="geometry" />
        </mxCell>
        <mxCell id="BfTjXE9WXuWk4CkO_jzb-12" value="Account" style="rounded=0;whiteSpace=wrap;html=1;fontSize=22;" vertex="1" parent="1">
          <mxGeometry x="255" y="330" width="120" height="60" as="geometry" />
        </mxCell>
        <mxCell id="BfTjXE9WXuWk4CkO_jzb-18" value="" style="endArrow=none;dashed=1;html=1;rounded=0;fontSize=22;" edge="1" parent="1">
          <mxGeometry width="50" height="50" relative="1" as="geometry">
            <mxPoint x="480" y="590" as="sourcePoint" />
            <mxPoint x="480" y="60" as="targetPoint" />
          </mxGeometry>
        </mxCell>
        <mxCell id="BfTjXE9WXuWk4CkO_jzb-19" value="" style="endArrow=none;dashed=1;html=1;dashPattern=1 3;strokeWidth=2;rounded=0;fontSize=22;entryX=-0.019;entryY=0.42;entryDx=0;entryDy=0;entryPerimeter=0;" edge="1" parent="1" target="BfTjXE9WXuWk4CkO_jzb-20">
          <mxGeometry width="50" height="50" relative="1" as="geometry">
            <mxPoint x="480" y="180" as="sourcePoint" />
            <mxPoint x="560" y="180" as="targetPoint" />
          </mxGeometry>
        </mxCell>
        <mxCell id="BfTjXE9WXuWk4CkO_jzb-29" style="edgeStyle=orthogonalEdgeStyle;rounded=0;orthogonalLoop=1;jettySize=auto;html=1;fontSize=22;" edge="1" parent="1" source="BfTjXE9WXuWk4CkO_jzb-20" target="BfTjXE9WXuWk4CkO_jzb-26">
          <mxGeometry relative="1" as="geometry" />
        </mxCell>
        <mxCell id="BfTjXE9WXuWk4CkO_jzb-20" value="&lt;span style=&quot;font-size: 22px&quot;&gt;Shopping Cart&lt;/span&gt;" style="rounded=1;whiteSpace=wrap;html=1;" vertex="1" parent="1">
          <mxGeometry x="590" y="135" width="150" height="105" as="geometry" />
        </mxCell>
        <mxCell id="BfTjXE9WXuWk4CkO_jzb-31" style="edgeStyle=orthogonalEdgeStyle;rounded=0;orthogonalLoop=1;jettySize=auto;html=1;exitX=0;exitY=0.5;exitDx=0;exitDy=0;fontSize=22;entryX=1;entryY=0.5;entryDx=0;entryDy=0;" edge="1" parent="1" source="BfTjXE9WXuWk4CkO_jzb-21" target="BfTjXE9WXuWk4CkO_jzb-4">
          <mxGeometry relative="1" as="geometry">
            <mxPoint x="400" y="70" as="targetPoint" />
          </mxGeometry>
        </mxCell>
        <mxCell id="BfTjXE9WXuWk4CkO_jzb-21" value="&lt;span style=&quot;font-size: 22px&quot;&gt;Account Configuration&lt;/span&gt;" style="rounded=1;whiteSpace=wrap;html=1;" vertex="1" parent="1">
          <mxGeometry x="590" y="270" width="150" height="100" as="geometry" />
        </mxCell>
        <mxCell id="BfTjXE9WXuWk4CkO_jzb-22" value="&lt;span style=&quot;font-size: 22px&quot;&gt;Account Configuration&lt;/span&gt;" style="rounded=1;whiteSpace=wrap;html=1;" vertex="1" parent="1">
          <mxGeometry x="590" y="410" width="150" height="100" as="geometry" />
        </mxCell>
        <mxCell id="BfTjXE9WXuWk4CkO_jzb-23" value="" style="endArrow=none;dashed=1;html=1;dashPattern=1 3;strokeWidth=2;rounded=0;fontSize=22;" edge="1" parent="1">
          <mxGeometry width="50" height="50" relative="1" as="geometry">
            <mxPoint x="480" y="319.47" as="sourcePoint" />
            <mxPoint x="560" y="319.47" as="targetPoint" />
          </mxGeometry>
        </mxCell>
        <mxCell id="BfTjXE9WXuWk4CkO_jzb-24" value="" style="endArrow=none;dashed=1;html=1;dashPattern=1 3;strokeWidth=2;rounded=0;fontSize=22;" edge="1" parent="1">
          <mxGeometry width="50" height="50" relative="1" as="geometry">
            <mxPoint x="490" y="465" as="sourcePoint" />
            <mxPoint x="570" y="465" as="targetPoint" />
          </mxGeometry>
        </mxCell>
        <mxCell id="BfTjXE9WXuWk4CkO_jzb-26" value="&lt;span style=&quot;font-size: 22px&quot;&gt;Transaction Finalization&lt;br&gt;&lt;/span&gt;" style="rounded=1;whiteSpace=wrap;html=1;" vertex="1" parent="1">
          <mxGeometry x="910" y="137.5" width="150" height="100" as="geometry" />
        </mxCell>
        <mxCell id="BfTjXE9WXuWk4CkO_jzb-27" value="Header" style="rounded=0;whiteSpace=wrap;html=1;fontSize=22;" vertex="1" parent="1">
          <mxGeometry x="1190" y="115" width="120" height="60" as="geometry" />
        </mxCell>
      </root>
    </mxGraphModel>
  </diagram>
</mxfile>
